<svg width="72" height="12" fill="none" xmlns="http://www.w3.org/2000/svg"><circle cx="36" cy="6" r="6" fill="#D9D9D9"/><path d="M11.85 6.287a.51.51 0 0 0-.047-.763L6.44 1.146a.705.705 0 0 0-.872.01l-5.381 4.6a.506.506 0 0 0-.026.764l.135.13c.223.218.585.244.807.058l.402-.336v4.919c0 .301.263.546.586.546h2.097c.324 0 .586-.245.586-.546V7.85h2.675v3.44a.533.533 0 0 0 .55.546h2.223c.323 0 .585-.244.585-.546V6.442s.112.09.249.203c.136.112.424.022.641-.201l.153-.157Z" fill="#D31342"/><circle cx="66" cy="6" r="6" fill="#D9D9D9"/></svg>